<svg width="34" height="34" viewBox="0 0 34 34" fill="none" xmlns="http://www.w3.org/2000/svg">
<g id="Group">
<path id="Vector" d="M25.5875 27.4543L27.8033 29.5305C30.367 26.7937 30.6221 26.4201 32.2532 23.0576L29.521 21.7317C28.0281 24.8072 27.9263 24.956 25.5875 27.4543Z" fill="#D1D5DB"/>
<path id="Vector_2" d="M15.5316 30.6301L15.606 33.6661C19.5775 33.5689 20.2108 33.4474 23.8953 32.1048L22.8549 29.2511C19.497 30.4737 19.1705 30.5405 15.5316 30.6301Z" fill="#D1D5DB"/>
<path id="Vector_3" d="M5.89288 25.3964L3.7226 27.5211C6.51253 30.3688 7.06231 30.7758 10.642 32.5633L12.0013 29.8463C8.75116 28.2243 8.44285 28.0026 5.89288 25.3964Z" fill="#D1D5DB"/>
<path id="Vector_4" d="M3.03749 15.4092H0C0 19.241 0.0820121 19.7573 1.23018 23.3826L4.12491 22.4653C3.07394 19.1468 3.03749 18.9038 3.03749 15.4092Z" fill="#D1D5DB"/>
<path id="Vector_5" d="M8.46016 6.04308C10.8248 4.24641 13.6862 3.25923 16.7069 3.25923C24.2445 3.25923 30.3756 9.3904 30.3756 16.9279C30.3756 17.2423 30.3498 17.5491 30.3286 17.8574L33.3417 18.3282C33.3812 17.865 33.4131 17.4003 33.4131 16.9279C33.4131 7.71674 25.9181 0.221737 16.7069 0.221737C12.8417 0.221737 9.17852 1.53089 6.21697 3.93051L2.02524 0L1.04413 11.5182L12.5927 9.90525L8.46016 6.04308Z" fill="#652CD3"/>
</g>
</svg>
