<svg width="34" height="34" viewBox="0 0 34 34" fill="none" xmlns="http://www.w3.org/2000/svg">
<g id="Group">
<path id="Vector" d="M1.98224 20.4178L5.32348 31.022C5.37802 31.1965 5.46665 31.3585 5.58422 31.4985C5.70179 31.6386 5.84598 31.7539 6.00843 31.8378C7.98656 32.8654 10.1834 33.4008 12.4125 33.3985C13.1921 33.3908 13.9698 33.3181 14.7374 33.1813L1.98224 20.4178Z" fill="#D1D5DB"/>
<path id="Vector_2" d="M33.0045 18.5063L14.9061 0.407909C14.6451 0.146807 14.291 7.88496e-05 13.9218 0C10.2308 0.00405347 6.69205 1.47211 4.08208 4.08208C1.47211 6.69205 0.00405347 10.2308 0 13.9218C7.88496e-05 14.291 0.146807 14.6451 0.407909 14.9061L18.5063 33.0045C18.7673 33.2656 19.1214 33.4123 19.4906 33.4124C23.1816 33.4083 26.7203 31.9403 29.3303 29.3303C31.9403 26.7203 33.4083 23.1816 33.4124 19.4906C33.4123 19.1214 33.2656 18.7673 33.0045 18.5063ZM9.74528 12.5296C9.19458 12.5296 8.65625 12.3663 8.19837 12.0604C7.74048 11.7544 7.3836 11.3196 7.17286 10.8108C6.96212 10.302 6.90698 9.74219 7.01441 9.20207C7.12185 8.66196 7.38703 8.16583 7.77643 7.77643C8.16583 7.38703 8.66196 7.12185 9.20207 7.01441C9.74219 6.90698 10.302 6.96212 10.8108 7.17286C11.3196 7.3836 11.7544 7.74048 12.0604 8.19837C12.3663 8.65625 12.5296 9.19458 12.5296 9.74528C12.5296 10.4837 12.2363 11.1919 11.7141 11.7141C11.1919 12.2363 10.4837 12.5296 9.74528 12.5296ZM21.9965 21.9965L20.8284 25.7554L18.555 22.5408L14.6179 22.5909L16.9735 19.4349L15.7094 15.708L19.4377 16.9721L22.5937 14.6179L22.5436 18.555L25.7554 20.8284L21.9965 21.9965Z" fill="#652CD3"/>
</g>
</svg>
